<svg width="25" height="25" viewBox="0 0 25 25" fill="none" xmlns="http://www.w3.org/2000/svg">
<path d="M5.56054 8.34065C5.56054 7.60328 5.85346 6.8961 6.37486 6.3747C6.89626 5.8533 7.60343 5.56038 8.34081 5.56038C9.07818 5.56038 9.78535 5.8533 10.3068 6.3747C10.8282 6.8961 11.1211 7.60328 11.1211 8.34065C11.1211 9.07802 10.8282 9.78519 10.3068 10.3066C9.78535 10.828 9.07818 11.1209 8.34081 11.1209C7.60343 11.1209 6.89626 10.828 6.37486 10.3066C5.85346 9.78519 5.56054 9.07802 5.56054 8.34065ZM8.34081 4.32471C7.27571 4.32471 6.25424 4.74781 5.50111 5.50095C4.74797 6.25408 4.32486 7.27556 4.32486 8.34065C4.32486 9.40574 4.74797 10.4272 5.50111 11.1803C6.25424 11.9335 7.27571 12.3566 8.34081 12.3566C9.4059 12.3566 10.4274 11.9335 11.1805 11.1803C11.9336 10.4272 12.3567 9.40574 12.3567 8.34065C12.3567 7.27556 11.9336 6.25408 11.1805 5.50095C10.4274 4.74781 9.4059 4.32471 8.34081 4.32471ZM15.3681 18.7141C16.0329 18.986 16.8694 19.1528 17.9173 19.1528C20.2416 19.1528 21.5267 18.3274 22.2038 17.3808C22.5579 16.8846 22.7795 16.3061 22.8476 15.7003C22.8537 15.6441 22.8578 15.5876 22.86 15.531V15.4458C22.86 15.2024 22.812 14.9613 22.7189 14.7365C22.6257 14.5116 22.4892 14.3073 22.3171 14.1351C22.145 13.963 21.9407 13.8265 21.7158 13.7334C21.4909 13.6402 21.2499 13.5923 21.0065 13.5923H15.2853C15.5819 13.9506 15.8043 14.3695 15.934 14.8279H21.0065C21.1703 14.8279 21.3275 14.893 21.4433 15.0089C21.5592 15.1248 21.6243 15.2819 21.6243 15.4458V15.5125L21.6181 15.5743C21.5717 15.9663 21.4272 16.3403 21.198 16.6617C20.7939 17.2289 19.9166 17.9171 17.9173 17.9171C17.0128 17.9171 16.3381 17.7763 15.8327 17.5699C15.7314 17.9159 15.5843 18.3064 15.3681 18.7141ZM1.85352 16.0636C1.85352 15.4082 2.11389 14.7796 2.57736 14.3161C3.04082 13.8526 3.66942 13.5923 4.32486 13.5923H12.3567C13.0122 13.5923 13.6408 13.8526 14.1043 14.3161C14.5677 14.7796 14.8281 15.4082 14.8281 16.0636V16.1674L14.8256 16.2168L14.8133 16.3837C14.7257 17.1845 14.4413 17.9511 13.9854 18.6153C13.1192 19.8695 11.4461 21.0063 8.34081 21.0063C5.23556 21.0063 3.56245 19.8695 2.69625 18.6165C2.24016 17.952 1.95572 17.1849 1.86834 16.3837C1.86129 16.3117 1.85635 16.2396 1.85352 16.1674V16.0636ZM3.08919 16.1378V16.16L3.09784 16.2626C3.16489 16.8549 3.37619 17.4217 3.71321 17.9134C4.31498 18.7833 5.5766 19.7706 8.34081 19.7706C11.105 19.7706 12.3666 18.7833 12.9684 17.9134C13.3054 17.4217 13.5167 16.8549 13.5838 16.2626C13.5887 16.2156 13.5912 16.1814 13.5912 16.16L13.5924 16.139V16.0636C13.5924 15.7359 13.4622 15.4216 13.2305 15.1899C12.9988 14.9581 12.6845 14.8279 12.3567 14.8279H4.32486C3.99714 14.8279 3.68284 14.9581 3.45111 15.1899C3.21938 15.4216 3.08919 15.7359 3.08919 16.0636V16.1378ZM16.0638 9.26741C16.0638 8.77582 16.2591 8.30437 16.6067 7.95677C16.9543 7.60917 17.4257 7.41389 17.9173 7.41389C18.4089 7.41389 18.8803 7.60917 19.2279 7.95677C19.5755 8.30437 19.7708 8.77582 19.7708 9.26741C19.7708 9.75899 19.5755 10.2304 19.2279 10.578C18.8803 10.9256 18.4089 11.1209 17.9173 11.1209C17.4257 11.1209 16.9543 10.9256 16.6067 10.578C16.2591 10.2304 16.0638 9.75899 16.0638 9.26741ZM17.9173 6.17822C17.098 6.17822 16.3122 6.50369 15.7329 7.08302C15.1536 7.66236 14.8281 8.4481 14.8281 9.26741C14.8281 10.0867 15.1536 10.8725 15.7329 11.4518C16.3122 12.0311 17.098 12.3566 17.9173 12.3566C18.7366 12.3566 19.5223 12.0311 20.1017 11.4518C20.681 10.8725 21.0065 10.0867 21.0065 9.26741C21.0065 8.4481 20.681 7.66236 20.1017 7.08302C19.5223 6.50369 18.7366 6.17822 17.9173 6.17822Z" fill="#3B3B3B"/>
</svg>
